<svg width="773" height="94" viewBox="0 0 773 94" fill="none" xmlns="http://www.w3.org/2000/svg">
<path d="M89.25 25.0839C88.3288 24.6551 87.5325 25.1001 87.325 25.2351C87.31 25.2451 87.2937 25.2563 87.2787 25.2663C87.2762 25.2676 87.2725 25.2714 87.2725 25.2714H87.2738C87.2338 25.2976 87.1925 25.3251 87.1525 25.3526C87.0987 25.3889 87.0438 25.4239 86.99 25.4589C86.9313 25.4964 86.8738 25.5339 86.815 25.5714C86.76 25.6064 86.705 25.6401 86.6488 25.6739C86.59 25.7101 86.53 25.7463 86.4713 25.7813C86.415 25.8151 86.3588 25.8476 86.3013 25.8801C86.2413 25.9151 86.1812 25.9488 86.1212 25.9826C86.0637 26.0151 86.0062 26.0463 85.9475 26.0776C85.8875 26.1113 85.8262 26.1439 85.765 26.1764C85.7062 26.2076 85.6475 26.2376 85.5887 26.2676C85.5275 26.2989 85.4662 26.3314 85.4037 26.3614C85.345 26.3914 85.285 26.4201 85.225 26.4489C85.1625 26.4789 85.1013 26.5088 85.0388 26.5376C84.9775 26.5663 84.9175 26.5939 84.8562 26.6214C84.7937 26.6501 84.7312 26.6776 84.6687 26.7051C84.6075 26.7326 84.545 26.7576 84.4825 26.7839C84.4187 26.8101 84.3562 26.8376 84.2925 26.8639C84.23 26.8889 84.1662 26.9139 84.1037 26.9389C84.04 26.9639 83.9775 26.9889 83.9138 27.0126C83.85 27.0364 83.785 27.0601 83.72 27.0839C83.6563 27.1076 83.5925 27.1301 83.5287 27.1526C83.4637 27.1751 83.3975 27.1976 83.3325 27.2188C83.2688 27.2401 83.2037 27.2626 83.1387 27.2826C83.0725 27.3039 83.0063 27.3238 82.9388 27.3438C82.8738 27.3638 82.81 27.3839 82.745 27.4026C82.6775 27.4226 82.61 27.4413 82.5425 27.4601C82.4775 27.4776 82.4125 27.4963 82.3475 27.5138C82.2788 27.5326 82.21 27.5489 82.1413 27.5664C82.0763 27.5826 82.0113 27.6001 81.9463 27.6151C81.8763 27.6314 81.8063 27.6476 81.7363 27.6626C81.6713 27.6776 81.6062 27.6926 81.5412 27.7064C81.47 27.7214 81.3987 27.7351 81.3262 27.7488C81.2612 27.7613 81.1963 27.7751 81.1313 27.7876C81.0588 27.8013 80.985 27.8126 80.9113 27.8251C80.8463 27.8364 80.7825 27.8476 80.7175 27.8576C80.6425 27.8688 80.5675 27.8801 80.4925 27.8901C80.4288 27.8988 80.365 27.9089 80.3013 27.9176C80.225 27.9276 80.1475 27.9363 80.07 27.9451C80.0075 27.9526 79.9438 27.9601 79.8813 27.9676C79.8025 27.9763 79.7225 27.9826 79.6438 27.9901C79.5813 27.9951 79.52 28.0026 79.4575 28.0063C79.3738 28.0126 79.2888 28.0176 79.2038 28.0226C79.1463 28.0263 79.0888 28.0314 79.0312 28.0339C78.935 28.0389 78.8375 28.0426 78.7413 28.0451C78.695 28.0463 78.6488 28.0489 78.6025 28.0501C78.4588 28.0539 78.315 28.0564 78.17 28.0564C78.025 28.0564 77.875 28.0539 77.7275 28.0501C77.675 28.0489 77.6225 28.0451 77.5688 28.0439C77.475 28.0401 77.3813 28.0376 77.2875 28.0326C77.2238 28.0289 77.1613 28.0239 77.0975 28.0201C77.015 28.0151 76.9338 28.0101 76.8513 28.0039C76.7825 27.9989 76.7138 27.9913 76.645 27.9851C76.57 27.9776 76.4937 27.9714 76.4187 27.9639C76.3462 27.9564 76.2737 27.9463 76.2 27.9376C76.13 27.9288 76.0588 27.9213 75.9888 27.9126C75.9113 27.9026 75.835 27.8901 75.7588 27.8789C75.6938 27.8689 75.6288 27.8601 75.5638 27.8501C75.485 27.8376 75.4062 27.8226 75.3262 27.8089C75.265 27.7976 75.2025 27.7876 75.1413 27.7764C75.06 27.7614 74.98 27.7439 74.8988 27.7276C74.84 27.7151 74.7825 27.7051 74.7238 27.6926C74.64 27.6751 74.5563 27.6551 74.4738 27.6351C74.42 27.6226 74.365 27.6101 74.3112 27.5976C74.2262 27.5764 74.1413 27.5539 74.0563 27.5326C74.005 27.5189 73.9537 27.5063 73.9025 27.4926C73.815 27.4688 73.7288 27.4439 73.6425 27.4189C73.595 27.4051 73.5462 27.3914 73.4975 27.3776C73.4087 27.3514 73.32 27.3226 73.2312 27.2939C73.1862 27.2801 73.1413 27.2664 73.0975 27.2514C73.0075 27.2214 72.9175 27.1901 72.8275 27.1589C72.785 27.1439 72.7437 27.1301 72.7012 27.1151C72.61 27.0826 72.5188 27.0488 72.4288 27.0138C72.3888 26.9988 72.35 26.9851 72.31 26.9688C72.2175 26.9326 72.125 26.8951 72.0338 26.8576C71.9975 26.8426 71.96 26.8288 71.9238 26.8126C71.83 26.7738 71.7375 26.7326 71.6438 26.6926C71.61 26.6776 71.5762 26.6638 71.5425 26.6488C71.4475 26.6063 71.3537 26.5626 71.26 26.5189C71.2287 26.5039 71.1975 26.4901 71.1662 26.4751C71.0712 26.4301 70.9775 26.3826 70.8838 26.3351C70.855 26.3201 70.825 26.3064 70.7962 26.2914C70.7012 26.2426 70.6075 26.1926 70.5125 26.1426C70.485 26.1276 70.4575 26.1139 70.43 26.0989C70.335 26.0476 70.24 25.9939 70.1463 25.9401C70.1213 25.9251 70.095 25.9113 70.07 25.8976C69.975 25.8426 69.88 25.7864 69.7863 25.7301C69.7625 25.7164 69.74 25.7026 69.7162 25.6889C69.6212 25.6314 69.5275 25.5714 69.4337 25.5126C69.4112 25.4989 69.39 25.4851 69.3675 25.4701C69.2738 25.4089 69.18 25.3476 69.0875 25.2839C69.0675 25.2701 69.0462 25.2563 69.0262 25.2426C68.9325 25.1788 68.84 25.1138 68.7475 25.0476C68.7287 25.0338 68.7088 25.0201 68.69 25.0063C68.5975 24.9401 68.505 24.8714 68.4138 24.8026C68.3963 24.7889 68.3775 24.7764 68.36 24.7626C68.2688 24.6926 68.1775 24.6226 68.0875 24.5514C68.07 24.5376 68.0538 24.5251 68.0363 24.5114C67.9613 24.4514 67.8875 24.3901 67.8125 24.3288C67.1187 23.8101 66.5475 23.8576 66.5475 23.8576C65.6938 23.8588 65.1763 24.3989 64.9775 24.6576C64.9488 24.6989 64.92 24.7388 64.8913 24.7801C64.8863 24.7888 64.8825 24.7939 64.8825 24.7939L64.89 24.7826C60.575 30.7976 53.1225 33.8976 45.39 33.8201C34.3762 33.7088 24.9213 24.9288 23.7538 14.2251C23.6288 12.9563 22.5762 11.6938 21.3112 11.6938H3.5C1.5675 11.6938 0 13.2613 0 15.1938V93.9439H23.75V51.6063C30.0788 55.0038 37.315 57.1501 45 57.2926C52.5625 57.4326 59.8162 55.8014 66.25 52.6476V93.9451H90V26.5326C90.0388 25.4301 89.25 25.0801 89.25 25.0801V25.0839Z" fill="#0080FF"/>
<path d="M78.1663 23.625C84.6901 23.625 89.9788 18.3364 89.9788 11.8125C89.9788 5.28864 84.6901 0 78.1663 0C71.6424 0 66.3538 5.28864 66.3538 11.8125C66.3538 18.3364 71.6424 23.625 78.1663 23.625Z" fill="#10D1D0"/>
<path d="M89.2962 25.1077C85.5162 37.7977 77.0337 47.3652 66.25 52.6514V93.9489H90V26.5364C90.0338 25.5939 89.4637 25.2027 89.2962 25.1077Z" fill="url(#paint0_linear_2813_8621)"/>
<path d="M113.769 25.0989H126.97L141.602 48.6376L156.235 25.0989H169.436V80.7651H157.349V44.4226L141.682 68.2001H141.365L125.857 44.6614V80.7651H113.77V25.0989H113.769Z" fill="white"/>
<path d="M203.868 81.719C199.574 81.719 195.624 80.964 192.019 79.4527C188.413 77.9415 185.299 75.9015 182.675 73.329C180.051 70.7577 178.009 67.7365 176.551 64.264C175.093 60.7927 174.364 57.0665 174.364 53.0915V52.9327C174.364 48.9565 175.105 45.2327 176.59 41.7602C178.074 38.289 180.129 35.239 182.753 32.6152C185.376 29.9915 188.504 27.9227 192.136 26.4127C195.768 24.9015 199.731 24.1465 204.025 24.1465C208.319 24.1465 212.268 24.9027 215.874 26.4127C219.479 27.924 222.594 29.9652 225.218 32.5365C227.841 35.109 229.883 38.1302 231.341 41.6027C232.799 45.0752 233.529 48.799 233.529 52.7752V52.934C233.529 56.9102 232.786 60.6352 231.303 64.1065C229.818 67.579 227.764 70.6277 225.14 73.2515C222.516 75.8752 219.388 77.944 215.756 79.454C212.124 80.9652 208.161 81.7202 203.868 81.7202V81.719ZM204.028 70.4277C206.465 70.4277 208.72 69.9777 210.788 69.0752C212.855 68.174 214.618 66.9277 216.076 65.3377C217.534 63.7477 218.674 61.9052 219.496 59.8115C220.318 57.7177 220.729 55.4777 220.729 53.0915V52.9327C220.729 50.5465 220.318 48.294 219.496 46.1727C218.674 44.0527 217.509 42.1965 215.998 40.6065C214.486 39.0165 212.698 37.7577 210.63 36.829C208.563 35.9015 206.309 35.4377 203.87 35.4377C201.431 35.4377 199.111 35.889 197.071 36.789C195.03 37.6915 193.28 38.9365 191.823 40.5265C190.364 42.1165 189.224 43.9602 188.403 46.0527C187.58 48.1477 187.17 50.3865 187.17 52.7727V52.9315C187.17 55.3177 187.58 57.5715 188.403 59.6915C189.224 61.8127 190.39 63.6677 191.901 65.2577C193.413 66.8477 195.188 68.1077 197.229 69.0352C199.269 69.9627 201.535 70.4265 204.028 70.4265V70.4277Z" fill="white"/>
<path d="M238.46 25.0989H249.752L275.836 59.3739V25.0989H287.924V80.7651H277.506L250.547 45.3776V80.7651H238.46V25.0989Z" fill="white"/>
<path d="M295.319 25.0989H337.227V35.9939H307.406V47.2864H333.649V58.1814H307.406V69.8714H337.625V80.7664H295.319V25.1001V25.0989Z" fill="white"/>
<path d="M360.487 58.8164L340.686 25.0989H353.41L366.69 47.4451L380.209 25.0989H392.535L372.734 58.5776V80.7651H360.487V58.8164Z" fill="white"/>
<path d="M396.312 25.0989H422.111C428.514 25.0989 433.356 26.7426 436.637 30.0289C439.177 32.5739 440.447 35.7289 440.447 39.4926V39.6514C440.447 41.2414 440.25 42.6476 439.855 43.8664C439.46 45.0864 438.934 46.1864 438.275 47.1664C437.616 48.1476 436.854 49.0089 435.984 49.7514C435.114 50.4939 434.18 51.1301 433.179 51.6601C436.397 52.8801 438.93 54.5364 440.779 56.6301C442.625 58.7251 443.55 61.6276 443.55 65.3376V65.4964C443.55 68.0414 443.06 70.2676 442.081 72.1764C441.102 74.0851 439.699 75.6751 437.872 76.9476C436.046 78.2201 433.85 79.1739 431.284 79.8101C428.716 80.4464 425.872 80.7651 422.75 80.7651H396.314V25.0989H396.312ZM419.533 47.6039C422.236 47.6039 424.384 47.1401 425.974 46.2126C427.564 45.2864 428.36 43.7876 428.36 41.7201V41.5614C428.36 39.7064 427.67 38.2889 426.293 37.3064C424.914 36.3264 422.925 35.8351 420.329 35.8351H408.241V47.6039H419.534H419.533ZM422.794 70.0301C425.497 70.0301 427.617 69.5401 429.155 68.5589C430.692 67.5789 431.461 66.0539 431.461 63.9864V63.8276C431.461 61.9726 430.745 60.5014 429.314 59.4139C427.883 58.3276 425.576 57.7839 422.395 57.7839H408.24V70.0301H422.793H422.794Z" fill="white"/>
<path d="M474.8 81.719C470.506 81.719 466.556 80.964 462.951 79.4527C459.345 77.9415 456.231 75.9015 453.607 73.329C450.984 70.7577 448.941 67.7365 447.484 64.264C446.025 60.7927 445.296 57.0665 445.296 53.0915V52.9327C445.296 48.9565 446.037 45.2327 447.522 41.7602C449.006 38.289 451.061 35.239 453.685 32.6152C456.309 29.9915 459.436 27.9227 463.069 26.4127C466.7 24.9015 470.664 24.1465 474.957 24.1465C479.251 24.1465 483.201 24.9027 486.806 26.4127C490.411 27.924 493.526 29.9652 496.15 32.5365C498.774 35.109 500.815 38.1302 502.274 41.6027C503.731 45.0752 504.461 48.799 504.461 52.7752V52.934C504.461 56.9102 503.719 60.6352 502.235 64.1065C500.75 67.579 498.696 70.6277 496.072 73.2515C493.449 75.8752 490.32 77.944 486.689 79.454C483.056 80.9652 479.095 81.7202 474.8 81.7202V81.719ZM474.959 70.4277C477.396 70.4277 479.651 69.9777 481.719 69.0752C483.786 68.174 485.549 66.9277 487.007 65.3377C488.465 63.7477 489.605 61.9052 490.427 59.8115C491.249 57.7177 491.66 55.4777 491.66 53.0915V52.9327C491.66 50.5465 491.249 48.294 490.427 46.1727C489.605 44.0527 488.44 42.1965 486.929 40.6065C485.417 39.0165 483.629 37.7577 481.561 36.829C479.494 35.9015 477.24 35.4377 474.801 35.4377C472.362 35.4377 470.042 35.889 468.002 36.789C465.961 37.6915 464.211 38.9365 462.754 40.5265C461.295 42.1165 460.155 43.9602 459.334 46.0527C458.511 48.1477 458.101 50.3865 458.101 52.7727V52.9315C458.101 55.3177 458.511 57.5715 459.334 59.6915C460.155 61.8127 461.321 63.6677 462.832 65.2577C464.344 66.8477 466.119 68.1077 468.161 69.0352C470.201 69.9627 472.467 70.4265 474.96 70.4265L474.959 70.4277Z" fill="white"/>
<path d="M520.804 52.4551L502.195 25.0989H516.111L528.199 43.1501L540.366 25.0989H553.885L535.276 52.2964L554.68 80.7664H540.764L527.881 61.6814L514.919 80.7664H501.4L520.804 52.4564V52.4551Z" fill="white"/>
<path d="M574.314 23.9338H598.478C605.381 23.9338 610.921 26.0213 614.453 29.5538C617.181 32.2838 618.788 36.2163 618.788 40.6326V40.7926C618.788 50.1051 612.365 55.5638 603.535 57.1688L620.795 80.1288H613.008L596.711 58.2926H580.655V80.1288H574.312V23.9338H574.314ZM597.915 52.5938C606.344 52.5938 612.365 48.2588 612.365 41.0338V40.8738C612.365 33.9701 607.066 29.7951 597.995 29.7951H580.655V52.5938H597.915Z" fill="white"/>
<path d="M621.544 59.4977V59.3377C621.544 47.3764 629.972 37.7427 641.452 37.7427C653.735 37.7427 660.8 47.5364 660.8 59.6589C660.8 60.4614 660.8 60.9439 660.72 61.6664H627.806C628.689 70.6577 635.031 75.7152 642.416 75.7152C648.116 75.7152 652.13 73.3877 655.501 69.8552L659.355 73.3077C655.18 77.9639 650.122 81.0952 642.256 81.0952C630.856 81.0952 621.545 72.3452 621.545 59.5002L621.544 59.4977ZM654.537 57.0889C653.895 49.5427 649.56 42.9602 641.291 42.9602C634.066 42.9602 628.607 48.9814 627.805 57.0889H654.537Z" fill="white"/>
<path d="M665.616 38.625H671.797V45.6087C674.527 41.515 678.22 37.7412 685.204 37.7412C692.187 37.7412 696.282 41.3537 698.53 46.01C701.5 41.4337 705.915 37.7412 713.14 37.7412C722.694 37.7412 728.554 44.1637 728.554 54.4387V80.1275H722.372V55.8837C722.372 47.8562 718.358 43.36 711.615 43.36C705.353 43.36 700.215 48.0162 700.215 56.205V80.1275H694.034V55.7225C694.034 47.935 689.94 43.36 683.356 43.36C676.772 43.36 671.796 48.8187 671.796 56.445V80.1275H665.615V38.6237L665.616 38.625Z" fill="white"/>
<path d="M736.101 22.73H743.166V29.5537H736.101V22.73ZM736.502 38.625H742.684V80.1287H736.502V38.625Z" fill="white"/>
<path d="M753.199 69.1313V44.085H747.419V38.6263H753.199V26.1025H759.38V38.6263H772.546V44.085H759.38V68.3288C759.38 73.3863 762.19 75.2325 766.364 75.2325C768.451 75.2325 770.217 74.8313 772.385 73.7875V79.0863C770.217 80.21 767.89 80.8525 764.919 80.8525C758.256 80.8525 753.197 77.5613 753.197 69.1313H753.199Z" fill="white"/>
<defs>
<linearGradient id="paint0_linear_2813_8621" x1="78.125" y1="93.9489" x2="78.125" y2="25.1077" gradientUnits="userSpaceOnUse">
<stop offset="0.2" stop-color="#0080FF"/>
<stop offset="0.94" stop-color="#003384"/>
</linearGradient>
</defs>
</svg>
