<svg width="326" height="94" viewBox="0 0 326 94" fill="none" xmlns="http://www.w3.org/2000/svg">
<path d="M89.2517 25.0844C88.3304 24.6556 87.5342 25.1006 87.3267 25.2356C87.3117 25.2456 87.2954 25.2569 87.2804 25.2669C87.2779 25.2681 87.2742 25.2719 87.2742 25.2719H87.2754C87.2354 25.2981 87.1942 25.3256 87.1542 25.3531C87.1004 25.3894 87.0454 25.4244 86.9917 25.4594C86.9329 25.4969 86.8754 25.5344 86.8167 25.5719C86.7617 25.6069 86.7067 25.6406 86.6504 25.6744C86.5917 25.7106 86.5317 25.7469 86.4729 25.7819C86.4166 25.8156 86.3604 25.8481 86.3029 25.8806C86.2429 25.9156 86.1829 25.9494 86.1229 25.9831C86.0654 26.0156 86.0079 26.0469 85.9491 26.0781C85.8891 26.1119 85.8279 26.1444 85.7666 26.1769C85.7079 26.2081 85.6491 26.2381 85.5904 26.2681C85.5291 26.2994 85.4679 26.3319 85.4054 26.3619C85.3466 26.3919 85.2866 26.4206 85.2266 26.4494C85.1641 26.4794 85.1029 26.5094 85.0404 26.5381C84.9791 26.5669 84.9191 26.5944 84.8579 26.6219C84.7954 26.6506 84.7329 26.6781 84.6704 26.7056C84.6091 26.7331 84.5466 26.7581 84.4841 26.7844C84.4204 26.8106 84.3579 26.8381 84.2941 26.8644C84.2316 26.8894 84.1678 26.9144 84.1053 26.9394C84.0416 26.9644 83.9791 26.9894 83.9154 27.0131C83.8516 27.0369 83.7866 27.0606 83.7216 27.0844C83.6578 27.1081 83.5941 27.1306 83.5303 27.1531C83.4653 27.1756 83.3991 27.1981 83.3341 27.2194C83.2703 27.2406 83.2053 27.2631 83.1403 27.2831C83.0741 27.3044 83.0078 27.3244 82.9403 27.3444C82.8753 27.3644 82.8116 27.3844 82.7466 27.4031C82.6791 27.4231 82.6116 27.4419 82.5441 27.4606C82.4791 27.4781 82.4141 27.4969 82.3491 27.5144C82.2803 27.5331 82.2116 27.5494 82.1428 27.5669C82.0778 27.5831 82.0128 27.6007 81.9478 27.6157C81.8778 27.6319 81.8078 27.6481 81.7378 27.6631C81.6728 27.6781 81.6078 27.6932 81.5428 27.7069C81.4715 27.7219 81.4003 27.7356 81.3278 27.7494C81.2628 27.7619 81.1978 27.7756 81.1328 27.7881C81.0603 27.8019 80.9865 27.8132 80.9128 27.8257C80.8478 27.8369 80.784 27.8482 80.719 27.8582C80.644 27.8694 80.569 27.8807 80.494 27.8907C80.4303 27.8994 80.3665 27.9094 80.3028 27.9182C80.2265 27.9282 80.149 27.9369 80.0715 27.9457C80.009 27.9532 79.9453 27.9607 79.8828 27.9682C79.804 27.9769 79.724 27.9832 79.6453 27.9907C79.5828 27.9957 79.5215 28.0032 79.459 28.0069C79.3753 28.0132 79.2903 28.0182 79.2053 28.0232C79.1478 28.0269 79.0903 28.0319 79.0328 28.0344C78.9365 28.0394 78.839 28.0432 78.7428 28.0457C78.6965 28.0469 78.6503 28.0494 78.604 28.0507C78.4603 28.0544 78.3165 28.0569 78.1715 28.0569C78.0265 28.0569 77.8765 28.0544 77.729 28.0507C77.6765 28.0494 77.624 28.0457 77.5702 28.0444C77.4765 28.0407 77.3827 28.0382 77.289 28.0332C77.2252 28.0294 77.1627 28.0244 77.099 28.0207C77.0165 28.0157 76.9352 28.0107 76.8527 28.0044C76.784 27.9994 76.7152 27.9919 76.6465 27.9857C76.5715 27.9782 76.4952 27.9719 76.4202 27.9644C76.3477 27.9569 76.2752 27.9469 76.2014 27.9382C76.1314 27.9294 76.0602 27.9219 75.9902 27.9132C75.9127 27.9032 75.8365 27.8907 75.7602 27.8794C75.6952 27.8694 75.6302 27.8607 75.5652 27.8507C75.4864 27.8382 75.4077 27.8232 75.3277 27.8094C75.2664 27.7982 75.2039 27.7882 75.1427 27.7769C75.0614 27.7619 74.9814 27.7444 74.9002 27.7281C74.8414 27.7157 74.7839 27.7057 74.7252 27.6932C74.6414 27.6757 74.5577 27.6557 74.4752 27.6356C74.4214 27.6231 74.3664 27.6107 74.3127 27.5982C74.2277 27.5769 74.1427 27.5544 74.0577 27.5331C74.0064 27.5194 73.9552 27.5069 73.9039 27.4931C73.8164 27.4694 73.7302 27.4444 73.6439 27.4194C73.5964 27.4056 73.5477 27.3919 73.4989 27.3781C73.4101 27.3519 73.3214 27.3231 73.2326 27.2944C73.1876 27.2806 73.1426 27.2669 73.0989 27.2519C73.0089 27.2219 72.9189 27.1906 72.8289 27.1594C72.7864 27.1444 72.7451 27.1306 72.7026 27.1156C72.6114 27.0831 72.5201 27.0494 72.4301 27.0144C72.3901 26.9994 72.3514 26.9856 72.3114 26.9694C72.2189 26.9331 72.1264 26.8956 72.0351 26.8581C71.9989 26.8431 71.9614 26.8294 71.9251 26.8131C71.8314 26.7744 71.7389 26.7331 71.6451 26.6931C71.6114 26.6781 71.5776 26.6644 71.5439 26.6494C71.4489 26.6069 71.3551 26.5631 71.2614 26.5194C71.2301 26.5044 71.1989 26.4906 71.1676 26.4756C71.0726 26.4306 70.9789 26.3831 70.8851 26.3356C70.8564 26.3206 70.8263 26.3069 70.7976 26.2919C70.7026 26.2431 70.6088 26.1931 70.5138 26.1431C70.4863 26.1281 70.4589 26.1144 70.4314 26.0994C70.3363 26.0481 70.2413 25.9944 70.1476 25.9406C70.1226 25.9256 70.0963 25.9119 70.0713 25.8981C69.9763 25.8431 69.8813 25.7869 69.7876 25.7306C69.7638 25.7169 69.7413 25.7031 69.7176 25.6894C69.6226 25.6319 69.5288 25.5719 69.4351 25.5131C69.4126 25.4994 69.3913 25.4856 69.3688 25.4706C69.2751 25.4094 69.1813 25.3481 69.0888 25.2844C69.0688 25.2706 69.0476 25.2569 69.0276 25.2431C68.9338 25.1794 68.8413 25.1144 68.7488 25.0481C68.7301 25.0343 68.7101 25.0206 68.6913 25.0068C68.5988 24.9406 68.5063 24.8719 68.4151 24.8031C68.3976 24.7893 68.3788 24.7768 68.3613 24.7631C68.2701 24.6931 68.1788 24.6231 68.0888 24.5518C68.0713 24.5381 68.0551 24.5256 68.0376 24.5118C67.9626 24.4518 67.8888 24.3906 67.8138 24.3293C67.12 23.8106 66.5488 23.8581 66.5488 23.8581C65.695 23.8593 65.1775 24.3993 64.9787 24.6581C64.95 24.6993 64.9212 24.7393 64.8925 24.7806C64.8875 24.7893 64.8837 24.7943 64.8837 24.7943L64.8912 24.7831C60.5762 30.7982 53.1235 33.8983 45.3909 33.8208C34.3769 33.7095 24.9217 24.9293 23.7542 14.2254C23.6292 12.9566 22.5767 11.6941 21.3117 11.6941H3.50007C1.56753 11.6941 0 13.2616 0 15.1942V93.9457H23.7505V51.6074C30.0793 55.0049 37.3157 57.1512 45.0009 57.2937C52.5635 57.4337 59.8174 55.8024 66.2513 52.6486V93.9469H90.0017V26.5331C90.0405 25.4306 89.2517 25.0806 89.2517 25.0806V25.0844Z" fill="#0080FF"/>
<path d="M78.1677 23.6255C84.6917 23.6255 89.9804 18.3367 89.9804 11.8127C89.9804 5.28874 84.6917 0 78.1677 0C71.6437 0 66.355 5.28874 66.355 11.8127C66.355 18.3367 71.6437 23.6255 78.1677 23.6255Z" fill="#10D1D0"/>
<path d="M89.2979 25.1079C85.5178 37.7982 77.0352 47.3658 66.2512 52.6522V93.9505H90.0017V26.5367C90.0354 25.5942 89.4654 25.2029 89.2979 25.1079Z" fill="url(#paint0_linear_2795_8613)"/>
<path d="M114.069 24.9517H139.878C147.028 24.9517 152.514 26.8605 156.331 30.678C159.557 33.9044 161.17 38.2069 161.17 43.582V43.7433C161.17 48.3134 160.054 52.0385 157.822 54.9135C155.591 57.7911 152.674 59.9011 149.071 61.2449L162.863 81.4078H148.345L136.247 63.3412H126.488V81.4078H114.068V24.9504L114.069 24.9517ZM139.072 52.3735C142.137 52.3735 144.488 51.6472 146.13 50.1959C147.77 48.7446 148.59 46.8083 148.59 44.3896V44.2283C148.59 41.5408 147.729 39.5245 146.008 38.1794C144.287 36.8357 141.895 36.1631 138.831 36.1631H126.491V52.3747H139.072V52.3735Z" fill="white"/>
<path d="M186.389 82.3528C183.243 82.3528 180.319 81.8277 177.619 80.779C174.918 79.7302 172.585 78.2364 170.619 76.2951C168.653 74.3551 167.119 72.0613 166.018 69.4125C164.916 66.765 164.366 63.8149 164.366 60.5636V60.4061C164.366 57.4173 164.878 54.586 165.9 51.9109C166.923 49.2371 168.35 46.9046 170.187 44.9108C172.022 42.9183 174.21 41.3457 176.754 40.192C179.297 39.0394 182.116 38.4619 185.209 38.4619C188.722 38.4619 191.763 39.0907 194.333 40.3495C196.902 41.6082 199.04 43.2995 200.743 45.422C202.447 47.5458 203.706 49.9846 204.518 52.7372C205.331 55.4897 205.737 58.3611 205.737 61.3499C205.737 61.8224 205.723 62.3211 205.698 62.8436C205.671 63.3686 205.632 63.9186 205.581 64.4962H176.242C176.818 67.2237 178.012 69.2813 179.82 70.67C181.629 72.0601 183.872 72.7551 186.546 72.7551C188.538 72.7551 190.321 72.4151 191.894 71.7325C193.467 71.0513 195.092 69.95 196.771 68.4287L203.613 74.4851C201.62 76.9501 199.208 78.8777 196.377 80.2665C193.546 81.6552 190.214 82.3515 186.388 82.3515L186.389 82.3528ZM194.098 57.026C193.731 54.3522 192.787 52.1884 191.267 50.5372C189.746 48.8859 187.727 48.0596 185.211 48.0596C182.694 48.0596 180.661 48.8734 179.114 50.4984C177.567 52.1247 176.558 54.301 176.085 57.0273H194.098V57.026Z" fill="white"/>
<path d="M210.693 39.2494H222.649V45.277C223.33 44.3795 224.076 43.5207 224.89 42.7019C225.702 41.8832 226.607 41.1582 227.604 40.5244C228.599 39.8906 229.714 39.3894 230.946 39.0194C232.178 38.6494 233.554 38.4644 235.076 38.4644C237.855 38.4644 240.254 39.0456 242.274 40.2069C244.292 41.3694 245.853 43.0319 246.954 45.1982C248.789 42.9807 250.834 41.3032 253.089 40.1681C255.343 39.0319 257.913 38.4644 260.798 38.4644C265.254 38.4644 268.742 39.7756 271.26 42.3969C273.777 45.0195 275.035 48.8733 275.035 53.9597V81.4114H263.079V57.951C263.079 55.1272 262.476 52.9946 261.271 51.5559C260.064 50.1183 258.333 49.3971 256.079 49.3971C253.825 49.3971 252.054 50.1171 250.77 51.5559C249.485 52.9934 248.843 55.1259 248.843 57.951V81.4114H236.886V57.951C236.886 55.1272 236.283 52.9946 235.078 51.5559C233.87 50.1183 232.14 49.3971 229.886 49.3971C227.632 49.3971 225.861 50.1171 224.577 51.5559C223.292 52.9934 222.65 55.1259 222.65 57.951V81.4114H210.695V39.2506L210.693 39.2494Z" fill="white"/>
<path d="M282.051 23.9893H294.076V34.6082H282.051V23.9893ZM282.036 39.2495H293.993V81.4104H282.036V39.2495Z" fill="white"/>
<path d="M316.054 82.1165C314.218 82.1165 312.554 81.9202 311.059 81.5265C309.564 81.1327 308.279 80.4389 307.205 79.4414C306.13 78.4464 305.29 77.1476 304.688 75.5476C304.084 73.9488 303.783 71.9175 303.783 69.4512V49.4721H298.749V39.2469H303.783V28.4705H315.738V39.2469H325.648V49.4721H315.738V67.5487C315.738 70.285 317.022 71.6538 319.592 71.6538C321.688 71.6538 323.654 71.13 325.491 70.0813V79.6777C324.232 80.4127 322.842 81.0027 321.322 81.4477C319.8 81.8927 318.044 82.1165 316.052 82.1165H316.054Z" fill="white"/>
<defs>
<linearGradient id="paint0_linear_2795_8613" x1="78.1264" y1="93.9505" x2="78.1264" y2="25.1079" gradientUnits="userSpaceOnUse">
<stop offset="0.2" stop-color="#0080FF"/>
<stop offset="0.94" stop-color="#003384"/>
</linearGradient>
</defs>
</svg>
