<svg width="326" height="94" viewBox="0 0 326 94" fill="none" xmlns="http://www.w3.org/2000/svg">
<path d="M89.2517 25.0841C88.3304 24.6553 87.5342 25.1004 87.3267 25.2354C87.3117 25.2454 87.2954 25.2566 87.2804 25.2666C87.2779 25.2679 87.2742 25.2716 87.2742 25.2716H87.2754C87.2354 25.2979 87.1942 25.3254 87.1542 25.3529C87.1004 25.3891 87.0454 25.4241 86.9917 25.4591C86.9329 25.4966 86.8754 25.5341 86.8167 25.5716C86.7617 25.6066 86.7067 25.6404 86.6504 25.6741C86.5917 25.7104 86.5317 25.7466 86.4729 25.7816C86.4166 25.8154 86.3604 25.8479 86.3029 25.8804C86.2429 25.9154 86.1829 25.9491 86.1229 25.9829C86.0654 26.0154 86.0079 26.0466 85.9491 26.0779C85.8891 26.1116 85.8279 26.1441 85.7666 26.1766C85.7079 26.2079 85.6491 26.2379 85.5904 26.2679C85.5291 26.2991 85.4679 26.3316 85.4054 26.3616C85.3466 26.3916 85.2866 26.4204 85.2266 26.4491C85.1641 26.4791 85.1029 26.5091 85.0404 26.5379C84.9791 26.5666 84.9191 26.5941 84.8579 26.6216C84.7954 26.6504 84.7329 26.6779 84.6704 26.7054C84.6091 26.7329 84.5466 26.7579 84.4841 26.7841C84.4204 26.8104 84.3579 26.8379 84.2941 26.8641C84.2316 26.8891 84.1678 26.9141 84.1053 26.9391C84.0416 26.9641 83.9791 26.9891 83.9154 27.0129C83.8516 27.0366 83.7866 27.0604 83.7216 27.0841C83.6578 27.1079 83.5941 27.1304 83.5303 27.1529C83.4653 27.1754 83.3991 27.1979 83.3341 27.2191C83.2703 27.2404 83.2053 27.2629 83.1403 27.2829C83.0741 27.3041 83.0078 27.3241 82.9403 27.3441C82.8753 27.3641 82.8116 27.3841 82.7466 27.4029C82.6791 27.4229 82.6116 27.4416 82.5441 27.4604C82.4791 27.4779 82.4141 27.4966 82.3491 27.5141C82.2803 27.5329 82.2116 27.5491 82.1428 27.5666C82.0778 27.5829 82.0128 27.6004 81.9478 27.6154C81.8778 27.6317 81.8078 27.6479 81.7378 27.6629C81.6728 27.6779 81.6078 27.6929 81.5428 27.7066C81.4715 27.7217 81.4003 27.7354 81.3278 27.7492C81.2628 27.7617 81.1978 27.7754 81.1328 27.7879C81.0603 27.8017 80.9865 27.8129 80.9128 27.8254C80.8478 27.8367 80.784 27.8479 80.719 27.8579C80.644 27.8692 80.569 27.8804 80.494 27.8904C80.4303 27.8992 80.3665 27.9092 80.3028 27.9179C80.2265 27.9279 80.149 27.9367 80.0715 27.9454C80.009 27.9529 79.9453 27.9604 79.8828 27.9679C79.804 27.9767 79.724 27.9829 79.6453 27.9904C79.5828 27.9954 79.5215 28.0029 79.459 28.0067C79.3753 28.0129 79.2903 28.0179 79.2053 28.0229C79.1478 28.0267 79.0903 28.0317 79.0328 28.0342C78.9365 28.0392 78.839 28.0429 78.7428 28.0454C78.6965 28.0467 78.6503 28.0492 78.604 28.0504C78.4603 28.0542 78.3165 28.0567 78.1715 28.0567C78.0265 28.0567 77.8765 28.0542 77.729 28.0504C77.6765 28.0492 77.624 28.0454 77.5702 28.0442C77.4765 28.0404 77.3827 28.0379 77.289 28.0329C77.2252 28.0292 77.1627 28.0242 77.099 28.0204C77.0165 28.0154 76.9352 28.0104 76.8527 28.0042C76.784 27.9992 76.7152 27.9917 76.6465 27.9854C76.5715 27.9779 76.4952 27.9717 76.4202 27.9642C76.3477 27.9567 76.2752 27.9467 76.2014 27.9379C76.1314 27.9292 76.0602 27.9217 75.9902 27.9129C75.9127 27.9029 75.8365 27.8904 75.7602 27.8792C75.6952 27.8692 75.6302 27.8604 75.5652 27.8504C75.4864 27.8379 75.4077 27.8229 75.3277 27.8092C75.2664 27.7979 75.2039 27.7879 75.1427 27.7767C75.0614 27.7617 74.9814 27.7442 74.9002 27.7279C74.8414 27.7154 74.7839 27.7054 74.7252 27.6929C74.6414 27.6754 74.5577 27.6554 74.4752 27.6354C74.4214 27.6229 74.3664 27.6104 74.3127 27.5979C74.2277 27.5766 74.1427 27.5542 74.0577 27.5329C74.0064 27.5192 73.9552 27.5067 73.9039 27.4929C73.8164 27.4692 73.7302 27.4441 73.6439 27.4191C73.5964 27.4054 73.5477 27.3916 73.4989 27.3779C73.4101 27.3516 73.3214 27.3229 73.2326 27.2941C73.1876 27.2804 73.1426 27.2666 73.0989 27.2516C73.0089 27.2216 72.9189 27.1904 72.8289 27.1591C72.7864 27.1441 72.7451 27.1304 72.7026 27.1154C72.6114 27.0829 72.5201 27.0491 72.4301 27.0141C72.3901 26.9991 72.3514 26.9854 72.3114 26.9691C72.2189 26.9329 72.1264 26.8954 72.0351 26.8579C71.9989 26.8429 71.9614 26.8291 71.9251 26.8129C71.8314 26.7741 71.7389 26.7329 71.6451 26.6929C71.6114 26.6779 71.5776 26.6641 71.5439 26.6491C71.4489 26.6066 71.3551 26.5629 71.2614 26.5191C71.2301 26.5041 71.1989 26.4904 71.1676 26.4754C71.0726 26.4304 70.9789 26.3829 70.8851 26.3354C70.8564 26.3204 70.8263 26.3066 70.7976 26.2916C70.7026 26.2429 70.6088 26.1929 70.5138 26.1429C70.4863 26.1279 70.4589 26.1141 70.4314 26.0991C70.3363 26.0479 70.2413 25.9941 70.1476 25.9404C70.1226 25.9254 70.0963 25.9116 70.0713 25.8979C69.9763 25.8429 69.8813 25.7866 69.7876 25.7304C69.7638 25.7166 69.7413 25.7029 69.7176 25.6891C69.6226 25.6316 69.5288 25.5716 69.4351 25.5129C69.4126 25.4991 69.3913 25.4854 69.3688 25.4704C69.2751 25.4091 69.1813 25.3479 69.0888 25.2841C69.0688 25.2704 69.0476 25.2566 69.0276 25.2429C68.9338 25.1791 68.8413 25.1141 68.7488 25.0479C68.7301 25.0341 68.7101 25.0204 68.6913 25.0066C68.5988 24.9404 68.5063 24.8716 68.4151 24.8028C68.3976 24.7891 68.3788 24.7766 68.3613 24.7628C68.2701 24.6928 68.1788 24.6228 68.0888 24.5516C68.0713 24.5378 68.0551 24.5253 68.0376 24.5116C67.9626 24.4516 67.8888 24.3903 67.8138 24.3291C67.12 23.8103 66.5488 23.8578 66.5488 23.8578C65.695 23.8591 65.1775 24.3991 64.9787 24.6578C64.95 24.6991 64.9212 24.7391 64.8925 24.7803C64.8875 24.7891 64.8837 24.7941 64.8837 24.7941L64.8912 24.7829C60.5762 30.798 53.1235 33.898 45.3909 33.8205C34.3769 33.7093 24.9217 24.9291 23.7542 14.2251C23.6292 12.9564 22.5767 11.6938 21.3117 11.6938H3.50007C1.56753 11.6938 0 13.2614 0 15.1939V93.9454H23.7505V51.6071C30.0793 55.0047 37.3157 57.151 45.0009 57.2935C52.5635 57.4335 59.8174 55.8022 66.2513 52.6484V93.9467H90.0017V26.5329C90.0405 25.4304 89.2517 25.0803 89.2517 25.0803V25.0841Z" fill="#0073FF"/>
<path d="M78.1677 23.6255C84.6917 23.6255 89.9804 18.3367 89.9804 11.8127C89.9804 5.28874 84.6917 0 78.1677 0C71.6437 0 66.355 5.28874 66.355 11.8127C66.355 18.3367 71.6437 23.6255 78.1677 23.6255Z" fill="#10D1D0"/>
<path d="M89.2979 25.1079C85.5178 37.7982 77.0352 47.3658 66.2512 52.6522V93.9505H90.0017V26.5367C90.0354 25.5942 89.4654 25.2029 89.2979 25.1079Z" fill="url(#paint0_linear_2604_9588)"/>
<path d="M114.053 24.8692H139.863C147.013 24.8692 152.498 26.778 156.316 30.5955C159.542 33.8218 161.154 38.1244 161.154 43.4995V43.6608C161.154 48.2309 160.038 51.9559 157.807 54.831C155.576 57.7085 152.658 59.8186 149.055 61.1624L162.847 81.3252H148.329L136.231 63.2586H126.472V81.3252H114.052V24.8679L114.053 24.8692ZM139.056 52.2909C142.122 52.2909 144.473 51.5647 146.114 50.1134C147.754 48.6621 148.574 46.7258 148.574 44.307V44.1458C148.574 41.4582 147.713 39.4419 145.993 38.0969C144.272 36.7531 141.879 36.0806 138.815 36.0806H126.475V52.2922H139.056V52.2909Z" fill="black"/>
<path d="M186.373 82.2702C183.227 82.2702 180.303 81.7452 177.603 80.6964C174.902 79.6477 172.569 78.1539 170.603 76.2126C168.637 74.2726 167.103 71.9788 166.002 69.33C164.901 66.6824 164.351 63.7324 164.351 60.4811V60.3236C164.351 57.3348 164.862 54.5035 165.884 51.8284C166.907 49.1546 168.334 46.8221 170.171 44.8283C172.006 42.8357 174.195 41.2632 176.738 40.1094C179.281 38.9569 182.1 38.3794 185.193 38.3794C188.706 38.3794 191.747 39.0082 194.317 40.2669C196.886 41.5257 199.024 43.217 200.728 45.3395C202.431 47.4633 203.69 49.9021 204.503 52.6547C205.315 55.4072 205.721 58.2785 205.721 61.2673C205.721 61.7398 205.708 62.2386 205.683 62.7611C205.655 63.2861 205.616 63.8361 205.565 64.4136H176.226C176.802 67.1412 177.996 69.1987 179.805 70.5875C181.613 71.9775 183.856 72.6726 186.53 72.6726C188.522 72.6726 190.305 72.3325 191.879 71.65C193.451 70.9688 195.076 69.8675 196.755 68.3462L203.598 74.4026C201.604 76.8676 199.193 78.7952 196.361 80.1839C193.53 81.5727 190.199 82.269 186.372 82.269L186.373 82.2702ZM194.082 56.9435C193.715 54.2697 192.771 52.1059 191.251 50.4546C189.73 48.8033 187.711 47.9771 185.195 47.9771C182.678 47.9771 180.645 48.7908 179.098 50.4159C177.551 52.0422 176.542 54.2184 176.07 56.9447H194.082V56.9435Z" fill="black"/>
<path d="M210.678 39.1668H222.633V45.1945C223.314 44.2969 224.06 43.4382 224.874 42.6194C225.687 41.8006 226.592 41.0756 227.588 40.4419C228.583 39.8081 229.698 39.3069 230.931 38.9368C232.162 38.5668 233.538 38.3818 235.061 38.3818C237.84 38.3818 240.238 38.9631 242.258 40.1244C244.276 41.2869 245.837 42.9494 246.938 45.1157C248.773 42.8982 250.819 41.2206 253.074 40.0856C255.327 38.9493 257.897 38.3818 260.782 38.3818C265.239 38.3818 268.726 39.6931 271.244 42.3144C273.761 44.937 275.019 48.7908 275.019 53.8771V81.3289H263.064V57.8685C263.064 55.0446 262.46 52.9121 261.255 51.4733C260.049 50.0358 258.317 49.3145 256.064 49.3145C253.81 49.3145 252.039 50.0346 250.755 51.4733C249.47 52.9109 248.827 55.0434 248.827 57.8685V81.3289H236.871V57.8685C236.871 55.0446 236.267 52.9121 235.062 51.4733C233.854 50.0358 232.124 49.3145 229.871 49.3145C227.617 49.3145 225.846 50.0346 224.562 51.4733C223.277 52.9109 222.634 55.0434 222.634 57.8685V81.3289H210.679V39.1681L210.678 39.1668Z" fill="black"/>
<path d="M282.035 23.9067H294.061V34.5257H282.035V23.9067ZM282.021 39.167H293.977V81.3278H282.021V39.167Z" fill="black"/>
<path d="M316.038 82.034C314.202 82.034 312.538 81.8377 311.043 81.444C309.548 81.0502 308.263 80.3564 307.19 79.3589C306.115 78.3639 305.275 77.0651 304.672 75.4651C304.068 73.8663 303.767 71.835 303.767 69.3687V49.3896H298.733V39.1644H303.767V28.3879H315.722V39.1644H325.632V49.3896H315.722V67.4662C315.722 70.2025 317.006 71.5713 319.576 71.5713C321.672 71.5713 323.639 71.0475 325.475 69.9987V79.5952C324.216 80.3302 322.826 80.9202 321.306 81.3652C319.785 81.8102 318.029 82.034 316.036 82.034H316.038Z" fill="black"/>
<defs>
<linearGradient id="paint0_linear_2604_9588" x1="78.1264" y1="93.9505" x2="78.1264" y2="25.1079" gradientUnits="userSpaceOnUse">
<stop offset="0.2" stop-color="#0073FF"/>
<stop offset="0.94" stop-color="#003384"/>
</linearGradient>
</defs>
</svg>
