<svg width="773" height="94" viewBox="0 0 773 94" fill="none" xmlns="http://www.w3.org/2000/svg">
<path d="M89.25 25.0838C88.3288 24.6551 87.5325 25.1001 87.325 25.2351C87.31 25.2451 87.2937 25.2563 87.2787 25.2663C87.2762 25.2676 87.2725 25.2713 87.2725 25.2713H87.2738C87.2338 25.2976 87.1925 25.3251 87.1525 25.3526C87.0987 25.3889 87.0438 25.4238 86.99 25.4588C86.9313 25.4963 86.8737 25.5338 86.815 25.5714C86.76 25.6063 86.705 25.6401 86.6488 25.6738C86.59 25.7101 86.53 25.7463 86.4713 25.7813C86.415 25.8151 86.3588 25.8476 86.3013 25.8801C86.2413 25.9151 86.1812 25.9488 86.1212 25.9826C86.0637 26.0151 86.0062 26.0463 85.9475 26.0776C85.8875 26.1113 85.8262 26.1438 85.765 26.1763C85.7063 26.2076 85.6475 26.2376 85.5887 26.2676C85.5275 26.2988 85.4662 26.3313 85.4037 26.3613C85.345 26.3913 85.285 26.4201 85.225 26.4488C85.1625 26.4788 85.1013 26.5088 85.0388 26.5376C84.9775 26.5663 84.9175 26.5938 84.8562 26.6213C84.7937 26.6501 84.7312 26.6776 84.6687 26.7051C84.6075 26.7326 84.545 26.7576 84.4825 26.7838C84.4187 26.8101 84.3562 26.8376 84.2925 26.8638C84.23 26.8888 84.1662 26.9139 84.1037 26.9389C84.04 26.9639 83.9775 26.9888 83.9138 27.0126C83.85 27.0363 83.785 27.0601 83.72 27.0838C83.6562 27.1076 83.5925 27.1301 83.5287 27.1526C83.4637 27.1751 83.3975 27.1976 83.3325 27.2188C83.2688 27.2401 83.2038 27.2626 83.1387 27.2826C83.0725 27.3039 83.0062 27.3238 82.9388 27.3438C82.8737 27.3638 82.81 27.3838 82.745 27.4026C82.6775 27.4226 82.61 27.4413 82.5425 27.4601C82.4775 27.4776 82.4125 27.4963 82.3475 27.5138C82.2788 27.5326 82.21 27.5488 82.1413 27.5663C82.0762 27.5826 82.0113 27.6001 81.9463 27.6151C81.8763 27.6313 81.8063 27.6476 81.7363 27.6626C81.6712 27.6776 81.6062 27.6926 81.5412 27.7063C81.47 27.7213 81.3988 27.7351 81.3262 27.7488C81.2612 27.7613 81.1963 27.7751 81.1313 27.7876C81.0588 27.8013 80.985 27.8126 80.9113 27.8251C80.8463 27.8363 80.7825 27.8476 80.7175 27.8576C80.6425 27.8688 80.5675 27.8801 80.4925 27.8901C80.4288 27.8988 80.365 27.9088 80.3013 27.9176C80.225 27.9276 80.1475 27.9363 80.07 27.9451C80.0075 27.9526 79.9438 27.9601 79.8813 27.9676C79.8025 27.9763 79.7225 27.9826 79.6438 27.9901C79.5813 27.9951 79.52 28.0026 79.4575 28.0063C79.3738 28.0126 79.2887 28.0176 79.2038 28.0226C79.1462 28.0263 79.0888 28.0313 79.0312 28.0338C78.935 28.0388 78.8375 28.0426 78.7413 28.0451C78.695 28.0463 78.6488 28.0488 78.6025 28.0501C78.4588 28.0538 78.315 28.0563 78.17 28.0563C78.025 28.0563 77.875 28.0538 77.7275 28.0501C77.675 28.0488 77.6225 28.0451 77.5688 28.0438C77.475 28.0401 77.3813 28.0376 77.2875 28.0326C77.2238 28.0289 77.1613 28.0238 77.0975 28.0201C77.015 28.0151 76.9338 28.0101 76.8513 28.0038C76.7825 27.9988 76.7138 27.9914 76.645 27.9851C76.57 27.9776 76.4937 27.9713 76.4187 27.9638C76.3462 27.9563 76.2738 27.9464 76.2 27.9376C76.13 27.9288 76.0588 27.9213 75.9888 27.9126C75.9113 27.9026 75.835 27.8901 75.7588 27.8788C75.6938 27.8688 75.6288 27.8601 75.5638 27.8501C75.485 27.8376 75.4062 27.8226 75.3262 27.8088C75.265 27.7976 75.2025 27.7876 75.1413 27.7763C75.06 27.7613 74.98 27.7439 74.8988 27.7276C74.84 27.7151 74.7825 27.7051 74.7238 27.6926C74.64 27.6751 74.5563 27.6551 74.4738 27.6351C74.42 27.6226 74.365 27.6101 74.3112 27.5976C74.2262 27.5763 74.1412 27.5539 74.0562 27.5326C74.005 27.5189 73.9537 27.5063 73.9025 27.4926C73.815 27.4688 73.7288 27.4438 73.6425 27.4188C73.595 27.4051 73.5462 27.3913 73.4975 27.3776C73.4087 27.3513 73.32 27.3226 73.2312 27.2938C73.1862 27.2801 73.1413 27.2664 73.0975 27.2514C73.0075 27.2214 72.9175 27.1901 72.8275 27.1588C72.785 27.1438 72.7438 27.1301 72.7012 27.1151C72.61 27.0826 72.5188 27.0488 72.4288 27.0138C72.3888 26.9988 72.35 26.9851 72.31 26.9688C72.2175 26.9326 72.125 26.8951 72.0338 26.8576C71.9975 26.8426 71.96 26.8288 71.9238 26.8126C71.83 26.7738 71.7375 26.7326 71.6438 26.6926C71.61 26.6776 71.5762 26.6638 71.5425 26.6488C71.4475 26.6063 71.3537 26.5626 71.26 26.5188C71.2287 26.5038 71.1975 26.4901 71.1662 26.4751C71.0712 26.4301 70.9775 26.3826 70.8838 26.3351C70.855 26.3201 70.825 26.3063 70.7962 26.2913C70.7012 26.2426 70.6075 26.1926 70.5125 26.1426C70.485 26.1276 70.4575 26.1138 70.43 26.0988C70.335 26.0476 70.24 25.9938 70.1463 25.9401C70.1213 25.9251 70.095 25.9113 70.07 25.8976C69.975 25.8426 69.88 25.7863 69.7863 25.7301C69.7625 25.7163 69.74 25.7026 69.7162 25.6889C69.6212 25.6314 69.5275 25.5713 69.4337 25.5126C69.4112 25.4988 69.39 25.4851 69.3675 25.4701C69.2738 25.4089 69.18 25.3476 69.0875 25.2838C69.0675 25.2701 69.0462 25.2563 69.0262 25.2426C68.9325 25.1788 68.84 25.1138 68.7475 25.0476C68.7287 25.0338 68.7088 25.0201 68.69 25.0063C68.5975 24.9401 68.505 24.8713 68.4138 24.8026C68.3963 24.7888 68.3775 24.7763 68.36 24.7626C68.2688 24.6926 68.1775 24.6226 68.0875 24.5513C68.07 24.5376 68.0538 24.5251 68.0363 24.5113C67.9613 24.4513 67.8875 24.3901 67.8125 24.3288C67.1188 23.8101 66.5475 23.8576 66.5475 23.8576C65.6937 23.8588 65.1763 24.3989 64.9775 24.6576C64.9488 24.6989 64.92 24.7388 64.8913 24.7801C64.8863 24.7888 64.8825 24.7938 64.8825 24.7938L64.89 24.7826C60.575 30.7976 53.1225 33.8976 45.39 33.8201C34.3763 33.7088 24.9213 24.9288 23.7538 14.2251C23.6288 12.9563 22.5762 11.6938 21.3112 11.6938H3.5C1.5675 11.6938 0 13.2613 0 15.1938V93.9438H23.75V51.6063C30.0788 55.0038 37.315 57.1501 45 57.2926C52.5625 57.4326 59.8162 55.8013 66.25 52.6476V93.9451H90V26.5326C90.0387 25.4301 89.25 25.0801 89.25 25.0801V25.0838Z" fill="#0073FF"/>
<path d="M78.1663 23.625C84.6901 23.625 89.9788 18.3364 89.9788 11.8125C89.9788 5.28864 84.6901 0 78.1663 0C71.6424 0 66.3538 5.28864 66.3538 11.8125C66.3538 18.3364 71.6424 23.625 78.1663 23.625Z" fill="#10D1D0"/>
<path d="M89.2962 25.1074C85.5162 37.7974 77.0337 47.3649 66.25 52.6512V93.9487H90V26.5362C90.0338 25.5937 89.4637 25.2024 89.2962 25.1074Z" fill="url(#paint0_linear_2509_9750)"/>
<path d="M736.085 22.6475H743.15V29.4712H736.085V22.6475ZM736.486 38.5425H742.668V80.0462H736.486V38.5425Z" fill="black"/>
<path d="M113.753 25.0164H126.954L141.586 48.5551L156.219 25.0164H169.42V80.6826H157.333V44.3401L141.666 68.1176H141.349L125.841 44.5789V80.6826H113.754V25.0164H113.753Z" fill="black"/>
<path d="M203.851 81.6365C199.558 81.6365 195.608 80.8815 192.003 79.3702C188.396 77.859 185.283 75.819 182.659 73.2465C180.035 70.6752 177.993 67.654 176.535 64.1815C175.076 60.7102 174.348 56.984 174.348 53.009V52.8502C174.348 48.874 175.089 45.1502 176.574 41.6777C178.058 38.2065 180.113 35.1565 182.736 32.5327C185.36 29.909 188.488 27.8402 192.12 26.3302C195.751 24.819 199.715 24.064 204.009 24.064C208.303 24.064 212.251 24.8202 215.858 26.3302C219.463 27.8415 222.578 29.8827 225.201 32.454C227.825 35.0265 229.866 38.0477 231.325 41.5202C232.783 44.9927 233.513 48.7165 233.513 52.6927V52.8515C233.513 56.8277 232.77 60.5527 231.286 64.024C229.801 67.4965 227.748 70.5452 225.124 73.169C222.5 75.7927 219.371 77.8615 215.74 79.3715C212.108 80.8827 208.145 81.6377 203.851 81.6377V81.6365ZM204.011 70.3452C206.449 70.3452 208.704 69.8952 210.771 68.9927C212.839 68.0915 214.601 66.8452 216.06 65.2552C217.518 63.6652 218.658 61.8227 219.48 59.729C220.301 57.6352 220.713 55.3952 220.713 53.009V52.8502C220.713 50.464 220.301 48.2115 219.48 46.0902C218.658 43.9702 217.493 42.114 215.981 40.524C214.47 38.934 212.681 37.6752 210.614 36.7465C208.546 35.819 206.293 35.3552 203.854 35.3552C201.415 35.3552 199.095 35.8065 197.055 36.7065C195.014 37.609 193.264 38.854 191.806 40.444C190.348 42.034 189.208 43.8777 188.386 45.9702C187.564 48.0652 187.154 50.304 187.154 52.6902V52.849C187.154 55.2352 187.564 57.489 188.386 59.609C189.208 61.7302 190.374 63.5852 191.885 65.1752C193.396 66.7652 195.171 68.0252 197.213 68.9527C199.253 69.8802 201.519 70.344 204.011 70.344V70.3452Z" fill="black"/>
<path d="M238.444 25.0164H249.736L275.82 59.2914V25.0164H287.908V80.6826H277.49L250.531 45.2951V80.6826H238.444V25.0164Z" fill="black"/>
<path d="M295.303 25.0164H337.211V35.9114H307.39V47.2039H333.633V58.0989H307.39V69.7888H337.609V80.6839H295.303V25.0176V25.0164Z" fill="black"/>
<path d="M360.471 58.7339L340.67 25.0164H353.394L366.674 47.3626L380.193 25.0164H392.519L372.718 58.4951V80.6826H360.471V58.7339Z" fill="black"/>
<path d="M396.296 25.0164H422.095C428.498 25.0164 433.34 26.6601 436.621 29.9464C439.161 32.4914 440.431 35.6464 440.431 39.4101V39.5689C440.431 41.1589 440.234 42.5651 439.839 43.7839C439.444 45.0039 438.918 46.1038 438.259 47.0838C437.6 48.0651 436.838 48.9264 435.968 49.6689C435.098 50.4114 434.164 51.0476 433.163 51.5776C436.381 52.7976 438.914 54.4539 440.763 56.5476C442.609 58.6426 443.534 61.5451 443.534 65.2551V65.4138C443.534 67.9588 443.044 70.1851 442.065 72.0939C441.086 74.0026 439.683 75.5926 437.856 76.8651C436.03 78.1376 433.834 79.0914 431.268 79.7276C428.7 80.3638 425.856 80.6826 422.734 80.6826H396.298V25.0164H396.296ZM419.516 47.5213C422.22 47.5213 424.368 47.0576 425.958 46.1301C427.548 45.2039 428.344 43.7051 428.344 41.6376V41.4789C428.344 39.6239 427.654 38.2064 426.276 37.2239C424.898 36.2439 422.909 35.7526 420.313 35.7526H408.225V47.5213H419.518H419.516ZM422.778 69.9476C425.481 69.9476 427.601 69.4576 429.139 68.4763C430.676 67.4963 431.445 65.9714 431.445 63.9039V63.7451C431.445 61.8901 430.729 60.4189 429.298 59.3314C427.866 58.2451 425.56 57.7014 422.379 57.7014H408.224V69.9476H422.776H422.778Z" fill="black"/>
<path d="M474.784 81.6365C470.49 81.6365 466.54 80.8815 462.935 79.3702C459.329 77.859 456.215 75.819 453.592 73.2465C450.968 70.6752 448.925 67.654 447.468 64.1815C446.009 60.7102 445.28 56.984 445.28 53.009V52.8502C445.28 48.874 446.022 45.1502 447.507 41.6777C448.99 38.2065 451.045 35.1565 453.669 32.5327C456.293 29.909 459.42 27.8402 463.053 26.3302C466.684 24.819 470.648 24.064 474.942 24.064C479.235 24.064 483.185 24.8202 486.79 26.3302C490.395 27.8415 493.51 29.8827 496.134 32.454C498.758 35.0265 500.799 38.0477 502.258 41.5202C503.715 44.9927 504.445 48.7165 504.445 52.6927V52.8515C504.445 56.8277 503.703 60.5527 502.219 64.024C500.734 67.4965 498.68 70.5452 496.057 73.169C493.433 75.7927 490.304 77.8615 486.673 79.3715C483.04 80.8827 479.079 81.6377 474.784 81.6377V81.6365ZM474.943 70.3452C477.38 70.3452 479.635 69.8952 481.703 68.9927C483.77 68.0915 485.533 66.8452 486.992 65.2552C488.449 63.6652 489.589 61.8227 490.411 59.729C491.233 57.6352 491.644 55.3952 491.644 53.009V52.8502C491.644 50.464 491.233 48.2115 490.411 46.0902C489.589 43.9702 488.424 42.114 486.913 40.524C485.402 38.934 483.613 37.6752 481.545 36.7465C479.478 35.819 477.224 35.3552 474.785 35.3552C472.347 35.3552 470.027 35.8065 467.987 36.7065C465.945 37.609 464.195 38.854 462.738 40.444C461.279 42.034 460.139 43.8777 459.318 45.9702C458.495 48.0652 458.085 50.304 458.085 52.6902V52.849C458.085 55.2352 458.495 57.489 459.318 59.609C460.139 61.7302 461.305 63.5852 462.817 65.1752C464.328 66.7652 466.103 68.0252 468.145 68.9527C470.185 69.8802 472.452 70.344 474.944 70.344L474.943 70.3452Z" fill="black"/>
<path d="M520.788 52.3726L502.179 25.0164H516.095L528.183 43.0676L540.35 25.0164H553.869L535.26 52.2139L554.664 80.6839H540.748L527.865 61.5989L514.903 80.6839H501.384L520.788 52.3739V52.3726Z" fill="black"/>
<path d="M574.298 23.8513H598.461C605.365 23.8513 610.905 25.9388 614.436 29.4713C617.165 32.2013 618.771 36.1338 618.771 40.5501V40.7101C618.771 50.0226 612.349 55.4813 603.519 57.0863L620.779 80.0463H612.991L596.695 58.2101H580.639V80.0463H574.296V23.8513H574.298ZM597.899 52.5113C606.328 52.5113 612.349 48.1763 612.349 40.9513V40.7913C612.349 33.8876 607.05 29.7126 597.979 29.7126H580.639V52.5113H597.899Z" fill="black"/>
<path d="M621.528 59.4152V59.2552C621.528 47.2939 629.957 37.6602 641.437 37.6602C653.719 37.6602 660.784 47.4539 660.784 59.5764C660.784 60.3789 660.784 60.8614 660.704 61.5839H627.79C628.673 70.5751 635.015 75.6327 642.4 75.6327C648.1 75.6327 652.114 73.3052 655.485 69.7727L659.339 73.2252C655.164 77.8814 650.107 81.0127 642.24 81.0127C630.84 81.0127 621.529 72.2627 621.529 59.4177L621.528 59.4152ZM654.522 57.0064C653.879 49.4602 649.544 42.8777 641.275 42.8777C634.05 42.8777 628.592 48.8989 627.789 57.0064H654.522Z" fill="black"/>
<path d="M665.6 38.5424H671.781V45.5262C674.511 41.4324 678.204 37.6587 685.188 37.6587C692.171 37.6587 696.266 41.2712 698.514 45.9274C701.484 41.3512 705.899 37.6587 713.124 37.6587C722.678 37.6587 728.538 44.0812 728.538 54.3562V80.0449H722.356V55.8012C722.356 47.7737 718.343 43.2774 711.599 43.2774C705.338 43.2774 700.199 47.9337 700.199 56.1224V80.0449H694.018V55.6399C694.018 47.8524 689.924 43.2774 683.34 43.2774C676.756 43.2774 671.78 48.7362 671.78 56.3624V80.0449H665.599V38.5412L665.6 38.5424Z" fill="black"/>
<path d="M753.183 69.0488V44.0025H747.403V38.5438H753.183V26.02H759.364V38.5438H772.53V44.0025H759.364V68.2463C759.364 73.3038 762.174 75.15 766.348 75.15C768.435 75.15 770.202 74.7488 772.369 73.705V79.0038C770.202 80.1275 767.874 80.77 764.903 80.77C758.24 80.77 753.182 77.4788 753.182 69.0488H753.183Z" fill="black"/>
<defs>
<linearGradient id="paint0_linear_2509_9750" x1="78.125" y1="93.9487" x2="78.125" y2="25.1074" gradientUnits="userSpaceOnUse">
<stop offset="0.2" stop-color="#0073FF"/>
<stop offset="0.94" stop-color="#003384"/>
</linearGradient>
</defs>
</svg>
