<svg width="125" height="185" viewBox="0 0 125 185" fill="none" xmlns="http://www.w3.org/2000/svg">
<path d="M123.171 34.6155C121.901 34.023 120.801 34.638 120.515 34.824C120.494 34.839 120.471 34.8525 120.45 34.8675C120.447 34.8705 120.441 34.8735 120.441 34.8735H120.443C120.387 34.9095 120.332 34.947 120.275 34.9845C120.2 35.034 120.125 35.0835 120.05 35.1315C119.969 35.184 119.889 35.235 119.806 35.2875C119.73 35.3355 119.654 35.382 119.577 35.43C119.496 35.4795 119.414 35.5305 119.331 35.5785C119.253 35.625 119.175 35.67 119.097 35.715C119.015 35.763 118.932 35.811 118.85 35.8575C118.77 35.9025 118.691 35.946 118.611 35.9895C118.527 36.0345 118.443 36.081 118.359 36.126C118.278 36.168 118.197 36.21 118.116 36.252C118.031 36.2955 117.947 36.339 117.861 36.3825C117.779 36.423 117.696 36.4635 117.614 36.5025C117.528 36.5445 117.443 36.585 117.356 36.6255C117.272 36.6645 117.188 36.702 117.104 36.741C117.018 36.78 116.931 36.819 116.844 36.8565C116.758 36.894 116.673 36.93 116.588 36.966C116.501 37.0035 116.414 37.0395 116.325 37.0755C116.238 37.1115 116.151 37.1445 116.064 37.179C115.977 37.2135 115.889 37.248 115.802 37.281C115.713 37.314 115.623 37.347 115.535 37.3785C115.446 37.41 115.359 37.443 115.271 37.4745C115.181 37.506 115.091 37.536 114.999 37.566C114.911 37.596 114.822 37.626 114.732 37.6545C114.641 37.6845 114.549 37.7115 114.456 37.74C114.368 37.767 114.278 37.7955 114.188 37.821C114.095 37.848 114.002 37.8735 113.907 37.9005C113.817 37.926 113.729 37.9515 113.638 37.9755C113.544 38.001 113.448 38.0235 113.354 38.0475C113.264 38.07 113.174 38.094 113.084 38.115C112.988 38.1375 112.89 38.1585 112.793 38.181C112.703 38.2005 112.613 38.2215 112.523 38.241C112.424 38.262 112.325 38.28 112.226 38.2995C112.136 38.3175 112.047 38.3355 111.957 38.352C111.857 38.37 111.755 38.3865 111.654 38.4045C111.566 38.4195 111.476 38.436 111.387 38.4495C111.284 38.466 111.18 38.4795 111.077 38.4945C110.988 38.5065 110.901 38.52 110.813 38.532C110.706 38.5455 110.6 38.5575 110.493 38.5695C110.406 38.58 110.319 38.5905 110.232 38.5995C110.123 38.6115 110.013 38.6205 109.903 38.6295C109.818 38.637 109.732 38.646 109.647 38.6535C109.53 38.6625 109.415 38.6685 109.298 38.676C109.218 38.6805 109.138 38.688 109.059 38.691C108.925 38.6985 108.792 38.7015 108.659 38.7075C108.594 38.709 108.531 38.7135 108.466 38.715C108.269 38.7195 108.069 38.7225 107.87 38.7225C107.67 38.7225 107.461 38.7195 107.259 38.715C107.185 38.7135 107.114 38.709 107.04 38.706C106.911 38.7015 106.782 38.697 106.653 38.691C106.566 38.6865 106.478 38.679 106.391 38.673C106.278 38.6655 106.164 38.6595 106.052 38.6505C105.956 38.643 105.861 38.6325 105.767 38.6235C105.663 38.6145 105.558 38.6055 105.455 38.5935C105.354 38.583 105.254 38.5695 105.153 38.5575C105.056 38.5455 104.958 38.535 104.862 38.5215C104.756 38.508 104.65 38.49 104.544 38.475C104.454 38.4615 104.364 38.4495 104.276 38.4345C104.166 38.4165 104.058 38.397 103.949 38.3775C103.863 38.3625 103.778 38.349 103.694 38.3325C103.581 38.3115 103.47 38.2875 103.359 38.265C103.278 38.2485 103.197 38.2335 103.118 38.2155C103.002 38.19 102.887 38.163 102.773 38.136C102.698 38.118 102.623 38.1015 102.548 38.0835C102.429 38.055 102.312 38.0235 102.195 37.9935C102.125 37.9755 102.053 37.9575 101.982 37.938C101.862 37.905 101.742 37.8705 101.622 37.836C101.556 37.8165 101.489 37.7985 101.423 37.779C101.3 37.7415 101.178 37.7025 101.055 37.6635C100.993 37.644 100.932 37.6245 100.87 37.605C100.746 37.5645 100.622 37.521 100.499 37.4775C100.44 37.458 100.383 37.4385 100.325 37.4175C100.198 37.3725 100.074 37.3245 99.948 37.278C99.894 37.257 99.8385 37.2375 99.7845 37.2165C99.657 37.167 99.5295 37.116 99.4035 37.0635C99.3525 37.0425 99.303 37.023 99.252 37.002C99.123 36.948 98.994 36.8925 98.8665 36.8355C98.82 36.8145 98.7735 36.795 98.727 36.774C98.5965 36.7155 98.4675 36.6555 98.3385 36.594C98.295 36.573 98.2515 36.5535 98.2095 36.534C98.079 36.471 97.9485 36.4065 97.8195 36.342C97.779 36.321 97.7385 36.3015 97.698 36.282C97.5675 36.2145 97.437 36.1455 97.3065 36.0765C97.269 36.057 97.2315 36.0375 97.194 36.0165C97.062 35.9445 96.933 35.8725 96.8025 35.7975C96.768 35.778 96.732 35.7585 96.6975 35.7375C96.5655 35.661 96.435 35.5845 96.306 35.505C96.2745 35.4855 96.2415 35.4675 96.21 35.448C96.0795 35.3685 95.949 35.286 95.82 35.2035C95.79 35.184 95.7585 35.1645 95.7285 35.145C95.598 35.061 95.469 34.9755 95.3415 34.8885C95.313 34.869 95.2845 34.851 95.256 34.8315C95.127 34.743 94.9995 34.653 94.872 34.563C94.845 34.5435 94.8195 34.5255 94.7925 34.5075C94.665 34.416 94.5375 34.3215 94.4115 34.227C94.386 34.209 94.362 34.1895 94.3365 34.1715C94.2105 34.0755 94.0845 33.978 93.9615 33.8805C93.9375 33.8625 93.9135 33.843 93.891 33.825C93.7875 33.7425 93.6855 33.6585 93.5835 33.573C92.6265 32.856 91.8375 32.9235 91.8375 32.9235C90.66 32.9265 89.946 33.6705 89.67 34.0275C89.631 34.0845 89.5905 34.14 89.55 34.1955C89.5425 34.2075 89.538 34.215 89.538 34.215L89.547 34.1985C83.592 42.4995 73.308 46.7775 62.6385 46.6695C47.4405 46.5165 34.3905 34.3995 32.781 19.6275C32.6085 17.877 31.155 16.1355 29.4105 16.1355H4.83C2.163 16.1355 0 18.2985 0 20.9655V129.641H32.775V71.2155C41.5095 75.903 51.495 78.8655 62.1 79.062C72.537 79.2555 82.5465 77.004 91.425 72.651V129.642H124.2V36.6195C124.254 35.097 123.165 34.6155 123.165 34.6155H123.171Z" fill="#0073FF"/>
<path d="M107.876 32.604C116.879 32.604 124.178 25.3053 124.178 16.302C124.178 7.29865 116.879 0 107.876 0C98.8724 0 91.5737 7.29865 91.5737 16.302C91.5737 25.3053 98.8724 32.604 107.876 32.604Z" fill="#10D1D0"/>
<path d="M123.235 34.6482C118.02 52.1607 106.314 65.3622 91.4307 72.6582V129.649H124.206V36.6192C124.252 35.3172 123.465 34.7787 123.235 34.6482Z" fill="url(#paint0_linear_2509_9707)"/>
<path d="M0.00732422 151.286H15.1393C19.3318 151.286 22.5478 152.405 24.7858 154.643C26.6773 156.535 27.6223 159.058 27.6223 162.209V162.304C27.6223 164.984 26.9683 167.167 25.6603 168.853C24.3523 170.54 22.6408 171.778 20.5303 172.565L28.6168 184.387H20.1058L13.0123 173.794H7.28982V184.387H0.00732422V151.286ZM14.6653 167.363C16.4623 167.363 17.8408 166.937 18.8023 166.087C19.7638 165.236 20.2438 164.101 20.2438 162.682V162.587C20.2438 161.011 19.7398 159.829 18.7303 159.041C17.7208 158.254 16.3183 157.859 14.5213 157.859H7.28682V167.363H14.6638H14.6653Z" fill="black"/>
<path d="M42.4079 184.94C40.5629 184.94 38.8484 184.633 37.2659 184.018C35.6819 183.403 34.3139 182.527 33.1619 181.39C32.0084 180.253 31.1099 178.907 30.4634 177.355C29.8184 175.802 29.4944 174.073 29.4944 172.166V172.075C29.4944 170.323 29.7944 168.662 30.3944 167.095C30.9944 165.527 31.8314 164.159 32.9084 162.991C33.9839 161.822 35.2679 160.9 36.7589 160.223C38.2499 159.547 39.9014 159.209 41.7164 159.209C43.7759 159.209 45.5594 159.578 47.0654 160.316C48.5714 161.054 49.8239 162.046 50.8244 163.291C51.8234 164.536 52.5614 165.965 53.0384 167.579C53.5154 169.193 53.7539 170.876 53.7539 172.63C53.7539 172.906 53.7464 173.198 53.7314 173.506C53.7149 173.813 53.6924 174.136 53.6624 174.475H36.4604C36.7979 176.074 37.4984 177.281 38.5589 178.094C39.6194 178.909 40.9334 179.317 42.5024 179.317C43.6709 179.317 44.7164 179.117 45.6389 178.717C46.5614 178.318 47.5139 177.671 48.4979 176.78L52.5104 180.331C51.3419 181.777 49.9274 182.906 48.2684 183.721C46.6079 184.535 44.6549 184.943 42.4124 184.943L42.4079 184.94ZM46.9274 170.09C46.7114 168.523 46.1579 167.254 45.2669 166.286C44.3744 165.317 43.1924 164.834 41.7164 164.834C40.2404 164.834 39.0494 165.311 38.1419 166.264C37.2344 167.218 36.6434 168.493 36.3659 170.092H46.9259L46.9274 170.09Z" fill="black"/>
<path d="M56.6577 159.668H63.6672V163.202C64.0662 162.676 64.5042 162.173 64.9812 161.693C65.4582 161.213 65.9877 160.789 66.5727 160.417C67.1562 160.045 67.8102 159.751 68.5332 159.535C69.2547 159.317 70.0617 159.209 70.9542 159.209C72.5832 159.209 73.9902 159.55 75.1737 160.231C76.3572 160.912 77.2722 161.887 77.9172 163.157C78.9927 161.857 80.1927 160.874 81.5142 160.208C82.8357 159.542 84.3417 159.209 86.0337 159.209C88.6467 159.209 90.6912 159.977 92.1672 161.515C93.6432 163.052 94.3812 165.313 94.3812 168.293V184.388H87.3717V170.633C87.3717 168.977 87.0177 167.728 86.3112 166.885C85.6032 166.042 84.5892 165.619 83.2677 165.619C81.9462 165.619 80.9082 166.04 80.1552 166.885C79.4022 167.728 79.0257 168.979 79.0257 170.633V184.388H72.0162V170.633C72.0162 168.977 71.6622 167.728 70.9557 166.885C70.2477 166.042 69.2337 165.619 67.9122 165.619C66.5907 165.619 65.5527 166.04 64.7997 166.885C64.0467 167.728 63.6702 168.979 63.6702 170.633V184.388H56.6607V159.67L56.6577 159.668Z" fill="black"/>
<path d="M98.4928 150.722H105.543V156.947H98.4928V150.722ZM98.4854 159.668H105.495V184.387H98.4854V159.668Z" fill="black"/>
<path d="M118.429 184.802C117.352 184.802 116.377 184.687 115.501 184.456C114.625 184.225 113.871 183.818 113.242 183.233C112.612 182.65 112.12 181.889 111.766 180.95C111.412 180.013 111.235 178.822 111.235 177.376V165.662H108.283V159.667H111.235V153.349H118.245V159.667H124.056V165.662H118.245V176.26C118.245 177.865 118.998 178.666 120.504 178.666C121.734 178.666 122.886 178.358 123.963 177.743V183.37C123.225 183.8 122.41 184.147 121.519 184.408C120.627 184.669 119.598 184.799 118.429 184.799V184.802Z" fill="black"/>
<defs>
<linearGradient id="paint0_linear_2509_9707" x1="107.82" y1="129.649" x2="107.82" y2="34.6482" gradientUnits="userSpaceOnUse">
<stop offset="0.2" stop-color="#0073FF"/>
<stop offset="0.94" stop-color="#003384"/>
</linearGradient>
</defs>
</svg>
