<svg width="125" height="185" viewBox="0 0 125 185" fill="none" xmlns="http://www.w3.org/2000/svg">
<path d="M123.171 34.6157C121.901 34.0232 120.801 34.6382 120.515 34.8242C120.494 34.8392 120.471 34.8527 120.45 34.8677C120.447 34.8707 120.441 34.8737 120.441 34.8737H120.442C120.387 34.9097 120.331 34.9472 120.274 34.9847C120.2 35.0342 120.124 35.0837 120.049 35.1317C119.968 35.1842 119.889 35.2352 119.806 35.2877C119.73 35.3357 119.654 35.3822 119.577 35.4302C119.496 35.4797 119.414 35.5307 119.331 35.5787C119.253 35.6252 119.175 35.6702 119.097 35.7152C119.015 35.7632 118.932 35.8112 118.849 35.8577C118.77 35.9027 118.691 35.9462 118.611 35.9897C118.527 36.0347 118.443 36.0812 118.359 36.1262C118.278 36.1682 118.197 36.2102 118.116 36.2522C118.03 36.2957 117.947 36.3392 117.861 36.3827C117.779 36.4232 117.696 36.4637 117.614 36.5027C117.528 36.5447 117.443 36.5852 117.356 36.6257C117.272 36.6647 117.187 36.7022 117.103 36.7412C117.018 36.7802 116.931 36.8192 116.844 36.8567C116.758 36.8942 116.673 36.9302 116.588 36.9662C116.501 37.0037 116.414 37.0397 116.325 37.0757C116.238 37.1117 116.151 37.1447 116.064 37.1792C115.977 37.2137 115.889 37.2482 115.802 37.2812C115.713 37.3142 115.623 37.3472 115.535 37.3787C115.446 37.4102 115.359 37.4432 115.271 37.4747C115.181 37.5062 115.091 37.5362 114.999 37.5662C114.911 37.5962 114.822 37.6262 114.732 37.6547C114.641 37.6847 114.549 37.7117 114.456 37.7402C114.368 37.7672 114.278 37.7957 114.188 37.8212C114.095 37.8482 114.002 37.8737 113.907 37.9007C113.817 37.9262 113.729 37.9517 113.638 37.9757C113.544 38.0012 113.448 38.0237 113.353 38.0477C113.263 38.0702 113.174 38.0942 113.084 38.1152C112.988 38.1377 112.89 38.1587 112.792 38.1812C112.702 38.2007 112.613 38.2217 112.523 38.2412C112.424 38.2622 112.325 38.2802 112.226 38.2997C112.136 38.3177 112.047 38.3357 111.957 38.3522C111.857 38.3702 111.755 38.3867 111.654 38.4047C111.566 38.4197 111.475 38.4362 111.387 38.4497C111.284 38.4662 111.18 38.4797 111.077 38.4947C110.988 38.5067 110.901 38.5202 110.813 38.5322C110.706 38.5457 110.6 38.5577 110.493 38.5697C110.406 38.5802 110.319 38.5907 110.232 38.5997C110.123 38.6117 110.013 38.6207 109.904 38.6297C109.818 38.6372 109.732 38.6462 109.647 38.6537C109.53 38.6627 109.415 38.6687 109.298 38.6762C109.218 38.6807 109.139 38.6882 109.059 38.6912C108.926 38.6987 108.792 38.7017 108.659 38.7077C108.594 38.7092 108.531 38.7137 108.466 38.7152C108.269 38.7197 108.069 38.7227 107.87 38.7227C107.67 38.7227 107.462 38.7197 107.259 38.7152C107.186 38.7137 107.114 38.7092 107.04 38.7062C106.911 38.7017 106.782 38.6972 106.653 38.6912C106.566 38.6867 106.478 38.6792 106.391 38.6732C106.278 38.6657 106.164 38.6597 106.052 38.6507C105.956 38.6432 105.861 38.6327 105.767 38.6237C105.663 38.6147 105.558 38.6057 105.455 38.5937C105.354 38.5832 105.254 38.5697 105.153 38.5577C105.056 38.5457 104.958 38.5352 104.862 38.5217C104.756 38.5082 104.651 38.4902 104.544 38.4752C104.454 38.4617 104.364 38.4497 104.276 38.4347C104.166 38.4167 104.058 38.3972 103.949 38.3777C103.863 38.3627 103.778 38.3492 103.694 38.3327C103.581 38.3117 103.47 38.2877 103.359 38.2652C103.278 38.2487 103.197 38.2337 103.118 38.2157C103.002 38.1902 102.887 38.1632 102.773 38.1362C102.698 38.1182 102.623 38.1017 102.548 38.0837C102.429 38.0552 102.312 38.0237 102.195 37.9937C102.125 37.9757 102.053 37.9577 101.982 37.9382C101.862 37.9052 101.742 37.8707 101.622 37.8362C101.556 37.8167 101.489 37.7987 101.423 37.7792C101.3 37.7417 101.178 37.7027 101.055 37.6637C100.994 37.6442 100.932 37.6247 100.87 37.6052C100.746 37.5647 100.622 37.5212 100.499 37.4777C100.44 37.4582 100.383 37.4387 100.325 37.4177C100.199 37.3727 100.074 37.3247 99.948 37.2782C99.894 37.2572 99.8385 37.2377 99.7845 37.2167C99.657 37.1672 99.5295 37.1162 99.4035 37.0637C99.3525 37.0427 99.303 37.0232 99.252 37.0022C99.123 36.9482 98.994 36.8927 98.8665 36.8357C98.82 36.8147 98.7735 36.7952 98.727 36.7742C98.5965 36.7157 98.4675 36.6557 98.3385 36.5942C98.295 36.5732 98.2515 36.5537 98.2095 36.5342C98.079 36.4712 97.9485 36.4067 97.8195 36.3422C97.779 36.3212 97.7385 36.3017 97.698 36.2822C97.5675 36.2147 97.437 36.1457 97.3065 36.0767C97.269 36.0572 97.2315 36.0377 97.194 36.0167C97.062 35.9447 96.933 35.8727 96.8025 35.7977C96.768 35.7782 96.732 35.7587 96.6975 35.7377C96.5655 35.6612 96.435 35.5847 96.306 35.5052C96.2745 35.4857 96.2415 35.4677 96.21 35.4482C96.0795 35.3687 95.949 35.2862 95.82 35.2037C95.79 35.1842 95.7585 35.1647 95.7285 35.1452C95.598 35.0612 95.469 34.9757 95.3415 34.8887C95.313 34.8692 95.2845 34.8512 95.256 34.8317C95.127 34.7432 94.9995 34.6532 94.872 34.5632C94.845 34.5437 94.8195 34.5257 94.7925 34.5077C94.665 34.4162 94.5375 34.3217 94.4115 34.2272C94.386 34.2092 94.362 34.1897 94.3365 34.1717C94.2105 34.0757 94.0845 33.9782 93.9615 33.8807C93.9375 33.8627 93.9135 33.8432 93.891 33.8252C93.7875 33.7427 93.6855 33.6587 93.5835 33.5732C92.6265 32.8562 91.8375 32.9237 91.8375 32.9237C90.66 32.9267 89.946 33.6707 89.67 34.0277C89.631 34.0847 89.5905 34.1402 89.55 34.1957C89.5425 34.2077 89.538 34.2152 89.538 34.2152L89.547 34.1987C83.592 42.4997 73.308 46.7777 62.6385 46.6697C47.4405 46.5167 34.3905 34.3997 32.781 19.6277C32.6085 17.8772 31.155 16.1357 29.4105 16.1357H4.83C2.163 16.1357 0 18.2987 0 20.9657V129.641H32.775V71.2157C41.5095 75.9032 51.495 78.8657 62.1 79.0622C72.537 79.2557 82.5465 77.0042 91.425 72.6512V129.642H124.2V36.6212C124.254 35.0987 123.165 34.6172 123.165 34.6172L123.171 34.6157Z" fill="#0080FF"/>
<path d="M107.875 32.604C116.879 32.604 124.177 25.3053 124.177 16.302C124.177 7.29865 116.879 0 107.875 0C98.8719 0 91.5732 7.29865 91.5732 16.302C91.5732 25.3053 98.8719 32.604 107.875 32.604Z" fill="#10D1D0"/>
<path d="M123.235 34.6501C118.02 52.1626 106.314 65.3642 91.4307 72.6602V129.651H124.206V36.6211C124.252 35.3191 123.465 34.7806 123.235 34.6501Z" fill="url(#paint0_linear_2513_9799)"/>
<path d="M0.154297 151.227H15.2863C19.4788 151.227 22.6948 152.346 24.9328 154.584C26.8243 156.475 27.7693 158.998 27.7693 162.15V162.244C27.7693 164.925 27.1153 167.107 25.8073 168.793C24.4993 170.481 22.7878 171.718 20.6773 172.506L28.7638 184.327H20.2528L13.1593 173.734H7.43679V184.327H0.154297V151.227ZM14.8123 167.304C16.6093 167.304 17.9878 166.878 18.9493 166.027C19.9108 165.177 20.3908 164.041 20.3908 162.622V162.528C20.3908 160.951 19.8868 159.769 18.8773 158.982C17.8678 158.194 16.4653 157.8 14.6683 157.8H7.4338V167.304H14.8108H14.8123Z" fill="white"/>
<path d="M42.5546 184.881C40.7096 184.881 38.9951 184.573 37.4126 183.958C35.8286 183.343 34.4606 182.467 33.3086 181.33C32.1551 180.193 31.2566 178.848 30.6101 177.295C29.9651 175.743 29.6411 174.013 29.6411 172.107V172.015C29.6411 170.263 29.9411 168.603 30.5411 167.035C31.1411 165.468 31.9781 164.1 33.0551 162.931C34.1306 161.763 35.4146 160.84 36.9056 160.164C38.3966 159.487 40.0481 159.15 41.8631 159.15C43.9226 159.15 45.7061 159.519 47.2121 160.257C48.7181 160.995 49.9706 161.986 50.9711 163.231C51.9701 164.476 52.7081 165.906 53.1851 167.52C53.6621 169.134 53.9006 170.817 53.9006 172.57C53.9006 172.846 53.8931 173.139 53.8781 173.446C53.8616 173.754 53.8391 174.076 53.8091 174.415H36.6071C36.9446 176.014 37.6451 177.222 38.7056 178.035C39.7661 178.849 41.0801 179.257 42.6491 179.257C43.8176 179.257 44.8631 179.058 45.7856 178.657C46.7081 178.258 47.6606 177.612 48.6446 176.721L52.6571 180.271C51.4886 181.717 50.0741 182.847 48.4151 183.661C46.7546 184.476 44.8016 184.884 42.5591 184.884L42.5546 184.881ZM47.0741 170.031C46.8581 168.463 46.3046 167.194 45.4136 166.227C44.5211 165.258 43.3391 164.775 41.8631 164.775C40.3871 164.775 39.1961 165.252 38.2886 166.204C37.3811 167.158 36.7901 168.433 36.5126 170.032H47.0726L47.0741 170.031Z" fill="white"/>
<path d="M56.8047 159.609H63.8142V163.143C64.2132 162.616 64.6512 162.114 65.1282 161.634C65.6052 161.154 66.1347 160.729 66.7197 160.357C67.3032 159.985 67.9572 159.691 68.6802 159.475C69.4017 159.258 70.2087 159.15 71.1012 159.15C72.7302 159.15 74.1372 159.49 75.3207 160.171C76.5042 160.852 77.4192 161.827 78.0642 163.098C79.1397 161.797 80.3397 160.815 81.6612 160.149C82.9827 159.483 84.4887 159.15 86.1807 159.15C88.7937 159.15 90.8382 159.918 92.3142 161.455C93.7902 162.993 94.5282 165.253 94.5282 168.234V184.329H87.5187V170.574C87.5187 168.918 87.1647 167.668 86.4582 166.825C85.7502 165.982 84.7362 165.559 83.4147 165.559C82.0932 165.559 81.0552 165.981 80.3022 166.825C79.5492 167.668 79.1727 168.919 79.1727 170.574V184.329H72.1632V170.574C72.1632 168.918 71.8092 167.668 71.1027 166.825C70.3947 165.982 69.3807 165.559 68.0592 165.559C66.7377 165.559 65.6997 165.981 64.9467 166.825C64.1937 167.668 63.8172 168.919 63.8172 170.574V184.329H56.8077V159.61L56.8047 159.609Z" fill="white"/>
<path d="M98.6398 150.663H105.69V156.888H98.6398V150.663ZM98.6323 159.609H105.642V184.327H98.6323V159.609Z" fill="white"/>
<path d="M118.576 184.743C117.499 184.743 116.524 184.627 115.648 184.396C114.772 184.165 114.018 183.759 113.389 183.174C112.759 182.59 112.267 181.83 111.913 180.891C111.559 179.953 111.382 178.762 111.382 177.316V165.603H108.43V159.607H111.382V153.289H118.392V159.607H124.203V165.603H118.392V176.2C118.392 177.805 119.145 178.606 120.651 178.606C121.881 178.606 123.033 178.299 124.11 177.684V183.31C123.372 183.741 122.557 184.087 121.666 184.348C120.774 184.609 119.745 184.74 118.576 184.74V184.743Z" fill="white"/>
<defs>
<linearGradient id="paint0_linear_2513_9799" x1="107.82" y1="129.65" x2="107.82" y2="34.6501" gradientUnits="userSpaceOnUse">
<stop offset="0.2" stop-color="#0080FF"/>
<stop offset="0.94" stop-color="#003384"/>
</linearGradient>
</defs>
</svg>
