<svg width="125" height="130" viewBox="0 0 125 130" fill="none" xmlns="http://www.w3.org/2000/svg">
<path d="M123.171 34.614C121.901 34.0215 120.801 34.6365 120.515 34.8225C120.494 34.8375 120.471 34.851 120.45 34.866C120.447 34.869 120.441 34.872 120.441 34.872H120.442C120.387 34.908 120.331 34.9455 120.274 34.983C120.2 35.0325 120.124 35.082 120.049 35.13C119.968 35.1825 119.889 35.2335 119.806 35.286C119.73 35.334 119.654 35.3805 119.577 35.4285C119.496 35.478 119.414 35.529 119.331 35.577C119.253 35.6235 119.175 35.6685 119.097 35.7135C119.015 35.7615 118.932 35.8095 118.849 35.856C118.77 35.901 118.691 35.9445 118.611 35.988C118.527 36.033 118.443 36.0795 118.359 36.1245C118.278 36.1665 118.197 36.2085 118.116 36.2505C118.03 36.294 117.947 36.3375 117.861 36.381C117.779 36.4215 117.696 36.462 117.614 36.501C117.528 36.543 117.443 36.5835 117.356 36.624C117.272 36.663 117.187 36.7005 117.103 36.7395C117.018 36.7785 116.931 36.8175 116.844 36.855C116.758 36.8925 116.673 36.9285 116.588 36.9645C116.501 37.002 116.414 37.038 116.325 37.074C116.238 37.11 116.151 37.143 116.064 37.1775C115.977 37.212 115.889 37.2465 115.802 37.2795C115.713 37.3125 115.623 37.3455 115.535 37.377C115.446 37.4085 115.359 37.4415 115.271 37.473C115.181 37.5045 115.091 37.5345 114.999 37.5645C114.911 37.5945 114.822 37.6245 114.732 37.653C114.641 37.683 114.549 37.71 114.456 37.7385C114.368 37.7655 114.278 37.794 114.188 37.8195C114.095 37.8465 114.002 37.872 113.907 37.899C113.817 37.9245 113.729 37.95 113.638 37.974C113.544 37.9995 113.448 38.022 113.353 38.046C113.263 38.0685 113.174 38.0925 113.084 38.1135C112.988 38.136 112.89 38.157 112.792 38.1795C112.702 38.199 112.613 38.22 112.523 38.2395C112.424 38.2605 112.325 38.2785 112.226 38.298C112.136 38.316 112.047 38.334 111.957 38.3505C111.857 38.3685 111.755 38.385 111.654 38.403C111.566 38.418 111.475 38.4345 111.387 38.448C111.284 38.4645 111.18 38.478 111.077 38.493C110.988 38.505 110.901 38.5185 110.813 38.5305C110.706 38.544 110.6 38.556 110.493 38.568C110.406 38.5785 110.319 38.589 110.232 38.598C110.123 38.61 110.013 38.619 109.904 38.628C109.818 38.6355 109.732 38.6445 109.647 38.652C109.53 38.661 109.415 38.667 109.298 38.6745C109.218 38.679 109.139 38.6865 109.059 38.6895C108.926 38.697 108.792 38.7 108.659 38.706C108.594 38.7075 108.531 38.712 108.466 38.7135C108.269 38.718 108.069 38.721 107.87 38.721C107.67 38.721 107.462 38.718 107.259 38.7135C107.186 38.712 107.114 38.7075 107.04 38.7045C106.911 38.7 106.782 38.6955 106.653 38.6895C106.566 38.685 106.478 38.6775 106.391 38.6715C106.278 38.664 106.164 38.658 106.052 38.649C105.956 38.6415 105.861 38.631 105.767 38.622C105.663 38.613 105.558 38.604 105.455 38.592C105.354 38.5815 105.254 38.568 105.153 38.556C105.056 38.544 104.958 38.5335 104.862 38.52C104.756 38.5065 104.651 38.4885 104.544 38.4735C104.454 38.46 104.364 38.448 104.276 38.433C104.166 38.415 104.058 38.3955 103.949 38.376C103.863 38.361 103.778 38.3475 103.694 38.331C103.581 38.31 103.47 38.286 103.359 38.2635C103.278 38.247 103.197 38.232 103.118 38.214C103.002 38.1885 102.887 38.1615 102.773 38.1345C102.698 38.1165 102.623 38.1 102.548 38.082C102.429 38.0535 102.312 38.022 102.195 37.992C102.125 37.974 102.053 37.956 101.982 37.9365C101.862 37.9035 101.742 37.869 101.622 37.8345C101.556 37.815 101.489 37.797 101.423 37.7775C101.3 37.74 101.178 37.701 101.055 37.662C100.994 37.6425 100.932 37.623 100.87 37.6035C100.746 37.563 100.622 37.5195 100.499 37.476C100.44 37.4565 100.383 37.437 100.325 37.416C100.199 37.371 100.074 37.323 99.948 37.2765C99.894 37.2555 99.8385 37.236 99.7845 37.215C99.657 37.1655 99.5295 37.1145 99.4035 37.062C99.3525 37.041 99.303 37.0215 99.252 37.0005C99.123 36.9465 98.994 36.891 98.8665 36.834C98.82 36.813 98.7735 36.7935 98.727 36.7725C98.5965 36.714 98.4675 36.654 98.3385 36.5925C98.295 36.5715 98.2515 36.552 98.2095 36.5325C98.079 36.4695 97.9485 36.405 97.8195 36.3405C97.779 36.3195 97.7385 36.3 97.698 36.2805C97.5675 36.213 97.437 36.144 97.3065 36.075C97.269 36.0555 97.2315 36.036 97.194 36.015C97.062 35.943 96.933 35.871 96.8025 35.796C96.768 35.7765 96.732 35.757 96.6975 35.736C96.5655 35.6595 96.435 35.583 96.306 35.5035C96.2745 35.484 96.2415 35.466 96.21 35.4465C96.0795 35.367 95.949 35.2845 95.82 35.202C95.79 35.1825 95.7585 35.163 95.7285 35.1435C95.598 35.0595 95.469 34.974 95.3415 34.887C95.313 34.8675 95.2845 34.8495 95.256 34.83C95.127 34.7415 94.9995 34.6515 94.872 34.5615C94.845 34.542 94.8195 34.524 94.7925 34.506C94.665 34.4145 94.5375 34.32 94.4115 34.2255C94.386 34.2075 94.362 34.188 94.3365 34.17C94.2105 34.074 94.0845 33.9765 93.9615 33.879C93.9375 33.861 93.9135 33.8415 93.891 33.8235C93.7875 33.741 93.6855 33.657 93.5835 33.5715C92.6265 32.8545 91.8375 32.922 91.8375 32.922C90.66 32.925 89.946 33.669 89.67 34.026C89.631 34.083 89.5905 34.1385 89.55 34.194C89.5425 34.206 89.538 34.2135 89.538 34.2135L89.547 34.197C83.592 42.498 73.308 46.776 62.6385 46.668C47.4405 46.515 34.3905 34.398 32.781 19.626C32.6085 17.8755 31.155 16.134 29.4105 16.134H4.83C2.163 16.134 0 18.297 0 20.964V129.639H32.775V71.214C41.5095 75.9015 51.495 78.864 62.1 79.0605C72.537 79.254 82.5465 77.0025 91.425 72.6495V129.641H124.2V36.6195C124.254 35.097 123.165 34.6155 123.165 34.6155L123.171 34.614Z" fill="white"/>
<path d="M107.876 32.601C116.878 32.601 124.176 25.303 124.176 16.3005C124.176 7.29798 116.878 0 107.876 0C98.8732 0 91.5752 7.29798 91.5752 16.3005C91.5752 25.303 98.8732 32.601 107.876 32.601Z" fill="#10D1D0"/>
<path d="M123.235 34.6489C118.02 52.1614 106.314 65.3629 91.4307 72.6589V129.65H124.206V36.6199C124.252 35.3179 123.465 34.7794 123.235 34.6489Z" fill="url(#paint0_linear_2509_9775)"/>
<defs>
<linearGradient id="paint0_linear_2509_9775" x1="107.82" y1="129.648" x2="107.82" y2="34.6489" gradientUnits="userSpaceOnUse">
<stop offset="0.2" stop-color="white"/>
<stop offset="0.94" stop-color="#7DBCF4"/>
</linearGradient>
</defs>
</svg>
